<?xml version="1.0" standalone="no"?>
<!DOCTYPE svg PUBLIC "-//W3C//DTD SVG 20010904//EN"
 "http://www.w3.org/TR/2001/REC-SVG-20010904/DTD/svg10.dtd">
<svg version="1.0" xmlns="http://www.w3.org/2000/svg"
 width="700.000000pt" height="700.000000pt" viewBox="0 0 700.000000 700.000000"
 preserveAspectRatio="xMidYMid meet">
<metadata>
Created by potrace 1.14, written by Peter Selinger 2001-2017
</metadata>
<g transform="translate(0.000000,700.000000) scale(0.100000,-0.100000)"
fill="#000000" stroke="none">
<path d="M3280 6994 c-19 -2 -84 -9 -145 -14 -578 -56 -1180 -283 -1660 -625
-237 -169 -531 -446 -709 -670 -416 -521 -673 -1147 -748 -1820 -17 -155 -17
-575 0 -730 52 -469 198 -931 418 -1327 290 -523 731 -983 1239 -1294 439
-269 920 -432 1460 -496 145 -17 576 -17 730 0 822 91 1556 447 2131 1034 203
206 348 390 487 618 274 449 433 916 499 1465 16 136 16 592 0 730 -86 725
-352 1347 -803 1885 -122 145 -351 370 -494 484 -510 407 -1117 661 -1775 742
-117 15 -553 27 -630 18z m535 -1125 c424 -44 874 -233 1220 -514 119 -96 304
-288 393 -406 244 -325 391 -673 459 -1084 14 -85 18 -165 18 -350 0 -267 -11
-362 -70 -590 -239 -938 -1029 -1633 -1998 -1760 -65 -8 -154 -15 -198 -15
l-79 0 0 350 0 350 48 0 c73 0 248 26 342 50 995 254 1529 1339 1121 2280
-246 565 -808 963 -1408 997 l-103 6 0 354 0 354 78 -6 c42 -3 122 -10 177
-16z m-560 -1029 c455 -10 529 -17 688 -71 437 -145 759 -501 865 -953 22 -95
25 -135 26 -276 0 -230 -34 -382 -131 -578 -151 -308 -447 -563 -769 -665
-196 -62 -200 -62 -884 -59 -503 2 -641 6 -709 18 -298 54 -564 208 -759 440
-255 304 -356 683 -286 1073 45 251 159 474 339 660 114 118 221 198 358 267
218 109 373 138 807 152 19 1 224 -3 455 -8z"/>
<path d="M2464 4076 c-154 -36 -316 -160 -382 -294 -87 -177 -79 -384 22 -557
41 -70 135 -157 214 -198 132 -70 139 -70 757 -63 626 6 607 4 742 96 237 162
310 470 177 748 -46 94 -139 192 -220 229 -81 37 -149 41 -739 48 -416 4 -521
2 -571 -9z"/>
</g>
</svg>
