<?xml version="1.0" standalone="no"?>
<!DOCTYPE svg PUBLIC "-//W3C//DTD SVG 20010904//EN"
 "http://www.w3.org/TR/2001/REC-SVG-20010904/DTD/svg10.dtd">
<svg version="1.0" xmlns="http://www.w3.org/2000/svg"
 width="220.000000pt" height="220.000000pt" viewBox="0 0 220.000000 220.000000"
 preserveAspectRatio="xMidYMid meet">
<metadata>
Created by potrace 1.14, written by Peter Selinger 2001-2017
</metadata>
<g transform="translate(0.000000,220.000000) scale(0.100000,-0.100000)"
fill="#000000" stroke="none">
<path d="M848 2190 c-50 -15 -155 -79 -193 -117 -62 -62 -90 -133 -89 -228 0
-56 6 -90 18 -115 24 -45 108 -183 117 -190 15 -11 21 -58 23 -183 2 -107 6
-140 23 -177 38 -84 119 -157 198 -179 44 -11 184 -15 229 -6 86 18 179 95
219 184 19 40 22 69 25 225 3 113 0 181 -6 185 -6 3 -96 6 -201 6 -105 -1
-187 2 -183 6 4 3 78 50 165 104 86 53 157 100 157 103 0 5 -16 31 -118 192
-64 101 -119 154 -186 179 -52 19 -154 25 -198 11z m157 -139 c22 -10 50 -29
61 -42 25 -27 107 -160 102 -164 -2 -2 -83 -53 -181 -114 l-179 -111 -19 22
c-10 13 -18 26 -19 30 0 4 -13 26 -29 50 -54 82 -60 137 -25 215 17 37 56 70
129 107 59 30 105 32 160 7z m273 -590 c16 -1 15 -173 -1 -217 -33 -85 -97
-124 -204 -124 -107 0 -160 28 -201 105 -20 39 -25 222 -6 233 9 5 323 7 412
3z"/>
<path d="M473 1349 c-35 -13 -46 -46 -40 -113 8 -78 11 -89 36 -157 48 -128
150 -244 270 -308 76 -40 106 -50 196 -65 l70 -12 0 -227 0 -227 -85 0 c-95 0
-124 -12 -133 -56 -3 -17 2 -34 17 -51 l22 -25 244 1 245 0 21 25 c24 27 22
67 -4 88 -8 8 -54 15 -105 18 l-91 5 -1 210 c0 116 1 217 3 226 2 11 25 18 79
26 144 21 306 125 392 252 51 74 90 186 98 277 7 87 -8 114 -62 114 -40 0 -65
-27 -65 -71 0 -58 -29 -160 -60 -215 -17 -29 -53 -74 -80 -102 -98 -96 -199
-132 -375 -132 -193 0 -318 58 -420 195 -35 47 -74 155 -81 226 -8 85 -38 118
-91 98z"/>
</g>
</svg>
