<svg width="180" height="48" fill="none" xmlns="http://www.w3.org/2000/svg"><path d="M24 0c13.255 0 24 10.745 24 24S37.255 48 24 48 0 37.255 0 24 10.745 0 24 0z" fill="#7600AC"/><path d="M24.386 7.638c8.931.053 16.155 7.31 16.155 16.254 0 8.943-7.224 16.2-16.155 16.253v-4.822c6.268-.053 11.333-5.15 11.333-11.431 0-6.282-5.065-11.38-11.333-11.432V7.638z" fill="#FEFEFE"/><path d="M20.598 19.963c-1.014-.023-2.359-.089-3.335.028h-.002a3.878 3.878 0 000 7.7l7.402-.032a3.878 3.878 0 003.197-3.818c0-1.838-1.232-3.734-2.994-3.776l-4.268-.102zm3.664-5.12c4.905 0 8.922 3.984 8.922 8.924 0 4.943-4.088 8.922-8.913 8.922h-.064l-7.624-.063a8.924 8.924 0 010-17.719h.006c2.25-.267 5.337-.063 7.673-.063zm135.219 12.014V1.717c0-.48.064-.8.191-.959.256-.292.751-.439 1.485-.439h15.71c.734 0 1.197.113 1.389.34.191.225.288.578.288 1.057V4.55a.822.822 0 01-.36.699c-.24.173-.615.259-1.125.259h-9.627c-.575 0-.863.213-.863.639v4.19c0 .48.176.718.528.718h7.566c.32 0 .584.067.79.2.208.133.312.32.312.558v3.631c0 .533-.318.799-.957.799h-7.616c-.415 0-.623.226-.623.679v5.666c0 .32.176.48.528.48h10.776c.542 0 .893.085 1.054.258.159.173.239.419.239.738v2.794c0 .48-.064.799-.191.958-.256.293-.751.439-1.485.439h-16.333c-.574 0-.957-.054-1.149-.16-.352-.213-.527-.625-.527-1.237zM148.799 17.4v-6.226c0-2.075-.143-3.485-.429-4.23-.449-1.171-1.422-1.756-2.922-1.756-1.501 0-2.476.571-2.923 1.716-.287.745-.43 2.168-.43 4.27V17.4c0 2.074.143 3.485.43 4.23.447 1.17 1.422 1.756 2.923 1.756 1.5 0 2.473-.572 2.922-1.716.286-.745.429-2.169.429-4.27zm-13.792.677v-7.581c0-2.661.415-4.737 1.245-6.226 1.596-2.846 4.661-4.27 9.196-4.27 4.246 0 7.2 1.277 8.86 3.831 1.054 1.622 1.58 3.844 1.58 6.665v7.581c0 2.634-.414 4.697-1.245 6.186-1.596 2.873-4.661 4.31-9.195 4.31-3.546 0-6.171-.857-7.88-2.573-1.709-1.717-2.561-4.357-2.561-7.923zm-18.346 4.99h2.204c1.692 0 2.97-.327 3.831-.986.862-.65 1.293-1.476 1.293-2.467 0-.99-.383-1.809-1.149-2.448-.926-.751-2.252-1.123-3.975-1.123h-2.059c-.353 0-.567.066-.647.199a.92.92 0 00-.121.485v5.86c0 .32.208.48.623.48zm1.821-12.213c1.5 0 2.618-.259 3.353-.771.734-.518 1.102-1.157 1.102-1.922 0-.738-.288-1.33-.862-1.783-.768-.579-1.981-.871-3.641-.871h-1.533c-.575 0-.863.186-.863.551v4.324c0 .313.304.472.911.472h1.533zm-9.532 16.043V1.437c0-.453.112-.753.336-.898.223-.147.59-.22 1.102-.22h9.243c3.673 0 6.434.705 8.286 2.115 1.629 1.25 2.443 2.9 2.443 4.949 0 1.277-.384 2.407-1.15 3.392-.766.984-1.9 1.728-3.4 2.234v.16c1.82.506 3.249 1.383 4.286 2.634 1.038 1.25 1.556 2.727 1.556 4.43 0 2.34-.798 4.203-2.394 5.587-1.884 1.622-4.757 2.434-8.622 2.434h-10.248c-.959 0-1.438-.452-1.438-1.357zM98.27 17.4v-6.226c0-2.075-.145-3.485-.431-4.23-.447-1.171-1.42-1.756-2.922-1.756-1.5 0-2.474.571-2.921 1.716-.288.745-.432 2.168-.432 4.27V17.4c0 2.074.144 3.485.432 4.23.447 1.17 1.42 1.756 2.921 1.756s2.475-.572 2.922-1.716c.286-.745.431-2.169.431-4.27zm-13.794.677v-7.581c0-2.661.415-4.737 1.245-6.226C87.317 1.424 90.383 0 94.917 0c4.246 0 7.2 1.277 8.86 3.831 1.054 1.622 1.582 3.844 1.582 6.665v7.581c0 2.634-.415 4.697-1.246 6.186-1.597 2.873-4.662 4.31-9.196 4.31-3.544 0-6.17-.857-7.88-2.573-1.707-1.717-2.561-4.357-2.561-7.923zM61.676.32h3.736c.736 0 1.197.113 1.39.34.192.225.287.578.287 1.057v7.702c0 .24.04.426.12.559.08.133.279.2.599.2h5.22c.16 0 .271-.014.335-.04.288-.133.432-.4.432-.8v-7.62c0-.48.064-.8.191-.959.256-.292.75-.439 1.485-.439h3.736c.735 0 1.197.113 1.39.34.191.225.286.578.286 1.057v25.141c0 .48-.064.799-.191.958-.256.293-.75.439-1.485.439H75.47c-.735 0-1.197-.113-1.389-.34-.191-.225-.287-.578-.287-1.057V16.401c0-.425-.256-.638-.766-.638h-5.221c-.48 0-.72.2-.72.598v10.496c0 .612-.134.997-.406 1.158-.27.16-.695.239-1.27.239h-3.735c-.575 0-.958-.054-1.15-.16-.351-.213-.527-.625-.527-1.237V1.717c0-.48.065-.8.192-.959.255-.292.75-.439 1.485-.439zm114.637 40.516v-2.794c0-.932-.058-1.564-.174-1.899-.18-.526-.571-.789-1.175-.789-.605 0-.996.258-1.177.77-.115.335-.172.975-.172 1.918v2.794c0 .931.057 1.565.172 1.899.181.524.572.787 1.177.787.604 0 .995-.256 1.175-.77.116-.334.174-.973.174-1.916zm2.853.305c0 1.182-.167 2.106-.502 2.776-.641 1.29-1.876 1.933-3.7 1.933-1.427 0-2.483-.385-3.172-1.155-.687-.77-1.031-1.955-1.031-3.554v-3.403c0-1.195.168-2.126.501-2.795.643-1.278 1.876-1.917 3.702-1.917 1.709 0 2.898.573 3.566 1.72.423.728.636 1.725.636 2.992v3.403zm-27.199 3.94c0 .215-.025.357-.077.43-.102.13-.302.197-.598.197h-1.503c-.296 0-.482-.05-.559-.153-.077-.102-.116-.259-.116-.475v-6.143l-2.544 6.143c-.103.263-.222.434-.356.511a1.06 1.06 0 01-.531.117h-1.464c-.232 0-.386-.024-.464-.072-.14-.096-.211-.28-.211-.556V33.797c0-.215.025-.359.076-.43.103-.131.303-.197.599-.197h1.502c.296 0 .482.05.56.151.076.102.115.26.115.476v5.857l2.583-5.857c.116-.263.222-.432.318-.51.097-.078.241-.117.434-.117h1.561c.296 0 .482.05.56.151.076.102.115.26.115.476V45.08zm-30.918-1.953v-7.415c0-.142-.078-.215-.232-.215h-.964c-.167 0-.25.073-.25.215l-.097 1.11c0 1.84-.115 3.111-.347 3.816-.27.823-.482 1.647-.636 2.471v.144c.026.083.115.125.269.125h1.986c.181 0 .271-.084.271-.251zm4.183 4.248c0 .272-.055.446-.165.517-.109.07-.28.107-.51.107h-1.407c-.296 0-.483-.051-.56-.152-.077-.099-.115-.257-.115-.47v-1.406c0-.175-.103-.264-.308-.264h-4.685c-.232 0-.347.113-.347.337v1.334c0 .272-.055.443-.164.514-.109.07-.279.107-.511.107h-1.407c-.295 0-.482-.051-.559-.152-.077-.102-.116-.257-.116-.472v-3.373c0-.271.055-.444.164-.517.11-.071.28-.107.511-.107h.174c.193 0 .359-.19.5-.573.065-.167.142-.471.232-.914a33.25 33.25 0 00.655-3.922c.103-.99.155-1.946.155-2.867l.058-1.414c0-.25.051-.4.154-.448.103-.047.276-.071.521-.071h5.725c.295 0 .481.05.559.151.076.102.115.26.115.476v9.33c0 .12.01.193.029.217.019.023.087.035.202.035h.425c.23 0 .385.024.462.072.142.095.213.28.213.552v3.373zm-32.54-6.469l-.847-3.17a.241.241 0 00-.068-.116 2.58 2.58 0 01-.067-.063.446.446 0 00-.135.18l-.751 3.169c-.053.18-.007.268.133.268h1.6c.142 0 .187-.088.136-.268zm4.03 4.263a.688.688 0 01.039.233c0 .203-.142.305-.425.305h-1.89c-.192 0-.33-.048-.413-.143a.874.874 0 01-.183-.359l-.386-1.36c-.052-.18-.18-.27-.386-.27h-2.64c-.218 0-.347.09-.386.27l-.367 1.414a.647.647 0 01-.163.313c-.084.09-.216.135-.395.135h-1.87c-.244 0-.366-.114-.366-.34v-.108a.298.298 0 00.037-.09l2.97-11.498c.051-.215.125-.353.221-.412.097-.06.235-.09.415-.09h2.428c.167 0 .3.03.396.09.097.059.177.197.241.412l3.123 11.498zm-30.785-8.293c0-.406-.122-.728-.365-.967-.31-.298-.778-.448-1.408-.448h-1.06c-.168 0-.25.078-.25.233v2.455c0 .119.07.178.211.178h1.118c.489 0 .902-.134 1.244-.403.34-.268.51-.618.51-1.048zm3.085.125c0 1.219-.427 2.132-1.283 2.742-.854.608-1.975.913-3.363.913h-1.233c-.193 0-.29.089-.29.269v4.154c0 .275-.055.448-.164.52-.109.072-.279.108-.51.108h-1.504c-.232 0-.386-.024-.463-.072-.141-.096-.212-.28-.212-.556V33.797c0-.215.025-.359.078-.43.101-.131.3-.197.597-.197h3.508c1.928 0 3.283.472 4.068 1.416.514.62.771 1.426.771 2.416z" fill="#FEFEFE"/></svg>