<svg width="152" height="40" fill="none" xmlns="http://www.w3.org/2000/svg"><path d="M20 0c11.046 0 20 8.954 20 20s-8.954 20-20 20S0 31.046 0 20 8.954 0 20 0z" fill="#7600AC"/><path d="M20.321 6.365c7.443.044 13.463 6.09 13.463 13.544 0 7.454-6.02 13.5-13.463 13.545v-4.018c5.224-.045 9.445-4.293 9.445-9.527a9.527 9.527 0 00-9.445-9.526V6.365z" fill="#F5F5F5"/><path d="M17.165 16.637c-.844-.02-1.965-.075-2.778.022h-.003a3.232 3.232 0 000 6.417l6.169-.027a3.232 3.232 0 002.664-3.181c0-1.532-1.027-3.112-2.494-3.147l-3.558-.084zm3.054-4.267c4.087 0 7.435 3.32 7.435 7.436 0 4.12-3.407 7.435-7.428 7.435h-.053l-6.353-.053a7.436 7.436 0 010-14.765h.004c1.875-.223 4.448-.053 6.395-.053z" fill="#F5F5F5"/><path d="M134.901 22.38V1.43c0-.399.053-.665.159-.798.213-.244.626-.366 1.238-.366h13.092c.611 0 .997.094 1.157.283.159.188.24.482.24.881v2.36a.684.684 0 01-.301.583c-.199.145-.512.216-.937.216h-8.023c-.478 0-.718.178-.718.532v3.493c0 .399.146.598.439.598h6.306c.267 0 .486.056.658.166.173.111.26.267.26.466v3.025c0 .444-.265.666-.798.666h-6.346c-.346 0-.519.189-.519.566v4.722c0 .266.146.399.439.399h8.981c.451 0 .744.072.878.216.132.144.199.349.199.615v2.328c0 .4-.053.665-.159.798-.213.244-.626.366-1.238.366h-13.61c-.479 0-.798-.045-.958-.133-.293-.178-.439-.521-.439-1.031zM126 14.5V9.31c0-1.728-.12-2.904-.359-3.524-.373-.976-1.185-1.464-2.434-1.464-1.251 0-2.063.476-2.436 1.43-.239.62-.358 1.807-.358 3.558v5.19c0 1.729.119 2.904.358 3.524.373.976 1.185 1.464 2.436 1.464 1.249 0 2.061-.476 2.434-1.43.239-.62.359-1.807.359-3.558zm-11.495.565V8.747c0-2.218.346-3.948 1.038-5.189C116.873 1.186 119.427 0 123.207 0c3.538 0 5.999 1.065 7.383 3.192.878 1.352 1.317 3.204 1.317 5.555v6.318c0 2.194-.345 3.913-1.038 5.154-1.33 2.394-3.884 3.592-7.662 3.592-2.955 0-5.143-.715-6.567-2.145-1.424-1.43-2.135-3.63-2.135-6.601zm-15.287 4.157h1.836c1.411 0 2.475-.272 3.193-.82.718-.543 1.077-1.23 1.077-2.057 0-.825-.319-1.507-.957-2.04-.772-.626-1.877-.936-3.313-.936h-1.716c-.293 0-.472.055-.539.166a.763.763 0 00-.1.405v4.883c0 .266.173.399.519.399zm1.517-10.177c1.25 0 2.181-.216 2.794-.643.612-.431.918-.964.918-1.601 0-.615-.24-1.108-.718-1.486-.64-.482-1.651-.726-3.034-.726h-1.278c-.478 0-.718.156-.718.46v3.603c0 .26.253.393.758.393h1.278zm-7.944 13.37V1.197c0-.378.094-.628.28-.748.187-.123.493-.184.919-.184h7.702c3.061 0 5.362.587 6.905 1.762 1.358 1.043 2.037 2.417 2.037 4.124a4.48 4.48 0 01-.959 2.827c-.638.82-1.583 1.44-2.833 1.862v.133c1.516.422 2.707 1.153 3.572 2.195.864 1.042 1.296 2.272 1.296 3.691 0 1.952-.665 3.504-1.995 4.657-1.57 1.351-3.964 2.028-7.185 2.028h-8.54c-.8 0-1.198-.377-1.198-1.13zm-8.9-7.915V9.31c0-1.728-.12-2.904-.359-3.524-.372-.976-1.183-1.464-2.434-1.464-1.251 0-2.062.476-2.435 1.43-.24.62-.36 1.807-.36 3.558v5.19c0 1.729.12 2.904.36 3.524.373.976 1.184 1.464 2.435 1.464 1.25 0 2.062-.476 2.434-1.43.24-.62.36-1.807.36-3.558zm-11.495.565V8.747c0-2.218.346-3.948 1.038-5.189C74.764 1.186 77.32 0 81.098 0c3.538 0 6 1.065 7.383 3.192.878 1.352 1.318 3.204 1.318 5.555v6.318c0 2.194-.346 3.913-1.038 5.154-1.331 2.394-3.885 3.592-7.663 3.592-2.954 0-5.142-.715-6.567-2.145-1.423-1.43-2.135-3.63-2.135-6.601zM53.397.266h3.113c.613 0 .998.094 1.159.283.16.188.238.482.238.881v6.42c0 .199.034.354.1.465.067.11.233.166.5.166h4.35a.804.804 0 00.28-.033c.24-.11.358-.332.358-.665V1.43c0-.399.054-.665.16-.798.213-.244.625-.366 1.237-.366h3.114c.612 0 .997.094 1.158.283.16.188.239.482.239.881v20.95c0 .4-.054.666-.16.8-.213.243-.625.365-1.237.365h-3.114c-.612 0-.997-.094-1.157-.283-.16-.188-.24-.482-.24-.881v-8.713c0-.355-.213-.532-.638-.532h-4.35c-.4 0-.6.166-.6.498v8.747c0 .51-.112.83-.339.965-.225.133-.579.199-1.058.199h-3.113c-.478 0-.798-.045-.958-.133-.293-.178-.439-.521-.439-1.031V1.43c0-.4.054-.666.16-.8.213-.243.626-.365 1.237-.365zm95.53 33.764v-2.328c0-.777-.048-1.304-.145-1.583-.149-.438-.475-.657-.978-.657-.505 0-.83.215-.981.642-.096.278-.144.812-.144 1.598v2.328c0 .776.048 1.304.144 1.582.151.437.476.657.981.657.503 0 .829-.214.978-.642.097-.279.145-.811.145-1.597zm2.378.254c0 .985-.139 1.755-.418 2.313-.535 1.075-1.564 1.612-3.083 1.612-1.19 0-2.07-.321-2.644-.963-.572-.642-.859-1.63-.859-2.962v-2.836c0-.995.14-1.771.417-2.33.536-1.064 1.564-1.596 3.086-1.596 1.424 0 2.414.477 2.971 1.432.353.607.53 1.438.53 2.494v2.836zm-22.666 3.283c0 .18-.021.298-.064.359-.085.108-.251.164-.498.164h-1.253c-.247 0-.402-.042-.465-.127-.065-.085-.097-.216-.097-.396v-5.12l-2.12 5.12c-.086.219-.186.361-.297.426a.881.881 0 01-.442.097h-1.221c-.193 0-.321-.02-.386-.06-.117-.08-.176-.234-.176-.463v-9.403c0-.18.021-.299.063-.358.086-.11.253-.164.499-.164h1.252c.247 0 .402.042.466.126.064.085.096.217.096.396v4.88l2.153-4.88c.097-.22.185-.36.265-.425.081-.065.201-.097.362-.097h1.301c.247 0 .402.042.466.126.064.085.096.217.096.396v9.403zm-25.765-1.627v-6.18c0-.118-.065-.178-.193-.178h-.804c-.139 0-.208.06-.208.179l-.081.925c0 1.532-.096 2.593-.289 3.18a16.235 16.235 0 00-.53 2.06v.119c.022.07.096.104.225.104h1.654c.151 0 .226-.07.226-.21zm3.486 3.54c0 .227-.046.371-.138.43-.09.06-.233.09-.425.09h-1.172c-.247 0-.402-.042-.467-.126-.063-.083-.096-.215-.096-.392V38.31c0-.146-.086-.22-.256-.22h-3.905c-.193 0-.289.094-.289.28v1.112c0 .227-.045.37-.136.428-.091.06-.233.09-.426.09h-1.173c-.245 0-.401-.042-.465-.126-.065-.085-.097-.215-.097-.394v-2.811c0-.226.046-.37.137-.43.092-.06.233-.09.425-.09h.145c.16 0 .3-.159.418-.478.053-.138.118-.392.193-.761.246-1.075.428-2.164.545-3.269.086-.825.13-1.621.13-2.388l.048-1.179c0-.209.042-.333.128-.373.086-.04.23-.06.434-.06h4.771c.246 0 .401.043.466.127.063.085.096.217.096.396v7.776c0 .1.008.16.024.18.016.019.073.029.169.029h.353c.192 0 .322.02.385.06.119.08.178.234.178.46v2.811zm-27.116-5.39l-.706-2.642a.202.202 0 00-.057-.097 1.92 1.92 0 01-.056-.053.374.374 0 00-.113.15l-.626 2.641c-.043.15-.005.224.112.224h1.333c.119 0 .155-.074.113-.224zm3.358 3.552c.02.059.032.124.032.194 0 .17-.118.254-.354.254h-1.574c-.16 0-.276-.04-.345-.12a.728.728 0 01-.153-.298l-.321-1.134c-.044-.15-.15-.225-.322-.225h-2.2c-.182 0-.289.075-.321.225l-.306 1.179a.54.54 0 01-.136.26c-.07.075-.18.113-.33.113h-1.558c-.203 0-.305-.095-.305-.284v-.09a.248.248 0 00.031-.074l2.475-9.582c.043-.18.104-.294.184-.343a.654.654 0 01.346-.075h2.023c.14 0 .25.024.33.075.08.049.148.164.201.343l2.603 9.582zm-25.654-6.91c0-.34-.102-.608-.305-.807-.258-.248-.648-.373-1.173-.373h-.883c-.14 0-.21.064-.21.194v2.045c0 .1.06.149.177.149h.932c.407 0 .752-.112 1.036-.335.284-.224.426-.516.426-.874zm2.57.103c0 1.015-.355 1.777-1.069 2.285-.711.506-1.645.761-2.802.761h-1.028c-.16 0-.241.074-.241.224v3.462c0 .229-.046.373-.137.432-.09.06-.233.091-.426.091h-1.253c-.193 0-.321-.02-.386-.06-.117-.08-.176-.234-.176-.463v-9.403c0-.18.021-.299.065-.358.085-.11.25-.164.497-.164h2.924c1.607 0 2.736.393 3.39 1.18.428.516.642 1.188.642 2.013z" fill="#46C31F"/></svg>