<svg xmlns="http://www.w3.org/2000/svg" width="300" height="110"><path fill-rule="evenodd" clip-rule="evenodd" fill="#EE2B37" d="M80.008 69.043v-9.989h9.764v9.989h6.946l-.001-26.179h-6.945v10.017l-9.764.001V42.864h-6.946l.001 26.179h6.945zm28.207-4.118h10.888l1.501 4.118 7.133-.002-10.324-26.178-7.51.001-10.322 26.179h7.133l1.501-4.118zm4.768-13.162c.074-.206.149-.428.225-.663.075-.234.151-.512.226-.83.075-.318.149-.705.225-1.162.075.457.15.844.226 1.162.074.317.15.595.226.83.075.235.149.457.225.663l2.704 7.555h-6.758l2.701-7.555zm24.555 17.278v-8.227h3.456c1.633-.003 3.142-.152 4.529-.451 1.386-.298 2.597-.787 3.631-1.471 1.034-.682 1.838-1.6 2.413-2.754.575-1.152.866-2.587.876-4.301-.01-1.713-.301-3.149-.876-4.307-.575-1.157-1.379-2.078-2.414-2.763-1.035-.684-2.245-1.175-3.631-1.472-1.387-.296-2.896-.441-4.529-.435l-10.401.001.001 26.178h6.945zm0-20.198h3.793a6.764 6.764 0 011.967.253c.6.175 1.083.48 1.449.917.367.438.555 1.046.564 1.825-.01.779-.198 1.388-.564 1.825-.366.438-.85.744-1.449.919a6.837 6.837 0 01-1.967.253h-3.793v-5.992zm41.873-2.45c-1.174-1.263-2.641-2.258-4.4-2.981-1.76-.725-3.813-1.094-6.16-1.108-2.347.014-4.4.383-6.16 1.108-1.76.724-3.227 1.718-4.399 2.981a12.585 12.585 0 00-2.64 4.35c-.586 1.637-.879 3.372-.879 5.209 0 1.839.293 3.574.879 5.209a12.58 12.58 0 002.641 4.349c1.173 1.265 2.639 2.259 4.399 2.982 1.759.725 3.813 1.093 6.159 1.106 2.348-.014 4.4-.383 6.161-1.106 1.76-.724 3.226-1.718 4.399-2.982a12.579 12.579 0 002.639-4.349c.587-1.636.88-3.371.88-5.209 0-1.837-.293-3.573-.88-5.21a12.566 12.566 0 00-2.639-4.349zm-4.403 13.31a6.012 6.012 0 01-2.335 2.581c-1.031.626-2.305.946-3.822.959-1.516-.013-2.79-.333-3.82-.959a6.001 6.001 0 01-2.336-2.581c-.525-1.092-.791-2.344-.792-3.752.001-1.408.265-2.659.792-3.753a6.008 6.008 0 012.336-2.579c1.03-.627 2.304-.947 3.82-.96 1.517.013 2.79.332 3.822.96a6.007 6.007 0 012.335 2.579c.526 1.093.79 2.345.792 3.753-.002 1.408-.266 2.66-.792 3.752zm16.219 9.337h17.278l.002 5.424h6.002V63.06h-3.383l-.001-20.199h-18.772a69.383 69.383 0 01-.32 6.982 41.93 41.93 0 01-1.236 6.858 28.035 28.035 0 01-2.57 6.359h-3.002v11.404h6.003V69.04zm5.978-10.173c.427-1.518.758-3.105.995-4.768a70.91 70.91 0 00.535-5.066h5.443l.001 14.027-8.635.001a20.88 20.88 0 001.661-4.194zm38.78-16.007l.001 10.017h-9.765V42.861h-6.947l.002 26.179h6.945v-9.991h9.765v9.991l6.945-.001-.001-26.179h-6.945zm36.472 3.529c-1.174-1.264-2.641-2.257-4.4-2.982-1.761-.723-3.813-1.092-6.16-1.106-2.348.014-4.4.383-6.16 1.107s-3.227 1.718-4.398 2.982a12.558 12.558 0 00-2.641 4.35c-.586 1.635-.879 3.372-.879 5.208 0 1.839.293 3.575.879 5.209a12.594 12.594 0 002.641 4.35c1.174 1.264 2.639 2.257 4.399 2.981 1.759.725 3.813 1.093 6.159 1.106 2.348-.014 4.4-.382 6.16-1.106 1.761-.725 3.227-1.718 4.4-2.982a12.564 12.564 0 002.639-4.35c.586-1.634.88-3.371.879-5.208.001-1.837-.293-3.574-.879-5.209a12.598 12.598 0 00-2.639-4.35zM268.054 59.7c-.526 1.093-1.304 1.954-2.335 2.581s-2.305.947-3.822.959c-1.516-.012-2.79-.332-3.821-.959a6.009 6.009 0 01-2.335-2.58c-.526-1.093-.79-2.344-.792-3.753.002-1.407.265-2.658.791-3.752a6.025 6.025 0 012.336-2.581c1.031-.627 2.305-.947 3.821-.958 1.516.012 2.79.331 3.822.958a6.017 6.017 0 012.335 2.581c.526 1.093.79 2.344.792 3.752-.002 1.409-.266 2.659-.792 3.752zm19.744 3.357v-4.266h10.851v-5.943l-10.851.001v-4.01h11.976v-5.981l-18.921.001.001 26.178H300v-5.98h-12.202zM94.033 83.067c-.575-1.158-1.379-2.078-2.413-2.764-1.035-.686-2.245-1.176-3.631-1.471-1.388-.297-2.897-.442-4.529-.436l-10.401.001.001 26.18h6.945l-.001-8.229h3.457c1.632-.002 3.142-.152 4.529-.451 1.387-.297 2.597-.787 3.631-1.471 1.034-.681 1.838-1.6 2.413-2.752.575-1.155.867-2.588.875-4.301-.01-1.714-.302-3.149-.876-4.306zm-6.818 6.132c-.367.437-.85.743-1.45.917-.6.175-1.255.26-1.967.252l-3.793.002v-5.992h3.793a6.769 6.769 0 011.967.252c.6.176 1.083.48 1.45.918.365.438.553 1.046.564 1.826-.01.779-.199 1.387-.564 1.825zm18.016-10.802l-10.323 26.181 7.133-.002 1.501-4.118h10.888l1.502 4.118h7.132L112.74 78.397h-7.509zm.376 16.455l2.703-7.555c.075-.206.151-.428.226-.664.076-.235.15-.511.226-.829.075-.318.149-.706.225-1.162.075.456.15.844.226 1.162.074.318.15.594.224.829.076.236.151.458.226.664l2.704 7.554-6.76.001zm44.667 3.743l-.001-20.199-18.772.002c.011 2.316-.094 4.643-.319 6.98s-.638 4.624-1.237 6.857a27.97 27.97 0 01-2.57 6.359h-3.001V110h6.002v-5.425h17.278v5.423h6.003l-.001-11.403h-3.382zm-6.945 0h-8.635a20.777 20.777 0 001.661-4.193c.426-1.517.757-3.105.995-4.768.237-1.662.417-3.352.535-5.066h5.444v14.027zm31.754-20.199l-10.289 15.033c.056-.629.095-1.323.117-2.085.023-.761.034-1.511.033-2.253V78.396h-6.945v26.179h6.57l10.289-14.997c-.057.631-.096 1.324-.118 2.08s-.034 1.496-.032 2.221v10.696l6.946-.001-.001-26.178h-6.57zm36.094 3.53c-1.173-1.264-2.64-2.259-4.399-2.981-1.76-.725-3.813-1.094-6.159-1.107-2.348.014-4.402.383-6.161 1.107-1.76.723-3.226 1.718-4.399 2.981a12.579 12.579 0 00-2.639 4.349c-.586 1.636-.879 3.373-.879 5.21s.293 3.573.879 5.208a12.568 12.568 0 002.64 4.348c1.173 1.265 2.64 2.26 4.399 2.984 1.76.723 3.813 1.093 6.16 1.106 2.348-.014 4.4-.384 6.16-1.107 1.759-.724 3.227-1.719 4.399-2.983a12.563 12.563 0 002.638-4.348c.587-1.635.881-3.372.881-5.209 0-1.838-.294-3.573-.881-5.209a12.56 12.56 0 00-2.639-4.349zm-4.403 13.309a6.005 6.005 0 01-2.336 2.58c-1.03.628-2.305.947-3.82.96-1.517-.013-2.791-.332-3.822-.96a6.003 6.003 0 01-2.335-2.58c-.526-1.092-.79-2.343-.792-3.751.002-1.409.266-2.66.792-3.753.526-1.092 1.304-1.953 2.335-2.58s2.305-.947 3.822-.96c1.516.013 2.789.333 3.82.96s1.81 1.488 2.336 2.58c.525 1.093.791 2.344.791 3.752s-.263 2.661-.791 3.752zM14.595 34.791l.002 10.121c0 8.674 7.064 15.712 15.771 15.712h3.287c8.708 0 15.774-7.039 15.774-15.713l-.003-14.568H29.205l4.585-2.853 12.443-7.745-7.747-12.357C33.872.032 24.137-2.209 16.756 2.386l-2.791 1.736C6.578 8.717 4.33 18.417 8.944 25.775l5.651 9.016zm28.26 2.101l.001 8.02c0 5.058-4.121 9.164-9.201 9.164h-3.287c-5.077 0-9.199-4.106-9.199-9.165v-8.019h21.686zM17.445 9.676l2.792-1.735c4.303-2.679 9.983-1.373 12.674 2.917l4.265 6.803-6.867 4.274-11.528 7.17-4.264-6.801c-2.689-4.29-1.377-9.95 2.928-12.628zm43.292 32.621a3.28 3.28 0 00-3.286 3.273c0 12.703-10.349 23.012-23.097 23.014h-4.682c-12.75 0-23.098-10.312-23.1-23.011A3.28 3.28 0 003.285 42.3 3.281 3.281 0 000 45.574c.002 16 12.782 29.046 28.724 29.546v22.952l-7.649.001a3.28 3.28 0 00-3.285 3.274 3.281 3.281 0 003.286 3.275l21.871-.004a3.283 3.283 0 003.286-3.275 3.282 3.282 0 00-3.287-3.274l-7.649.001V75.12c15.942-.498 28.726-13.545 28.726-29.549a3.281 3.281 0 00-3.286-3.274z"/></svg>