<?xml version="1.0" encoding="utf-8"?><svg viewBox="0 0 32 32" xmlns="http://www.w3.org/2000/svg" xmlns:xlink="http://www.w3.org/1999/xlink"><style>:root>svg{display:none}:root>svg:target{display:block}</style><svg fill="none" viewBox="0 0 32 32" id="icon-arrow-left" xmlns="http://www.w3.org/2000/svg"><path d="M14 6l1.43 1.393L7.85 15H28v2H7.85l7.58 7.573L14 26 4 16 14 6z" fill="currentColor"/></svg><svg fill="none" viewBox="0 0 32 32" id="icon-arrow-right" xmlns="http://www.w3.org/2000/svg"><path d="M18 6l-1.43 1.393L24.15 15H4v2h20.15l-7.58 7.573L18 26l10-10L18 6z" fill="currentColor"/></svg><svg fill="none" viewBox="0 0 24 24" id="icon-checkmark-filled" xmlns="http://www.w3.org/2000/svg"><path d="M12 1.5a10.5 10.5 0 100 21 10.5 10.5 0 000-21zm-1.5 14.692l-3.75-3.75 1.192-1.192 2.558 2.557 5.558-5.557 1.197 1.19-6.755 6.752z" fill="#46C31F"/></svg><svg fill="none" viewBox="0 0 24 24" id="icon-phone" xmlns="http://www.w3.org/2000/svg"><path d="M15.248 16.11l1.68-1.68a1.642 1.642 0 011.755-.36l2.047.817a1.635 1.635 0 011.02 1.5v3.75a1.627 1.627 0 01-1.71 1.613C5.693 20.858 2.798 8.707 2.25 4.058A1.628 1.628 0 013.878 2.25H7.5A1.62 1.62 0 019 3.27l.818 2.047a1.62 1.62 0 01-.353 1.755l-1.68 1.68s.968 6.548 7.463 7.358z" fill="currentColor"/></svg></svg>