<?xml version="1.0" encoding="utf-8"?><svg viewBox="0 0 48 48" xmlns="http://www.w3.org/2000/svg" xmlns:xlink="http://www.w3.org/1999/xlink"><style>:root>svg{display:none}:root>svg:target{display:block}</style><svg fill="none" viewBox="0 0 32 32" id="icon-adst" xmlns="http://www.w3.org/2000/svg"><path d="M15.75 0C24.734.053 32 7.195 32 16s-7.266 15.947-16.25 16v-4.747c6.305-.052 11.4-5.07 11.4-11.253S22.055 4.8 15.75 4.747V0z" fill="currentColor"/><path d="M11.94 12.134c-1.02-.023-2.373-.088-3.354.027h-.003c-1.933.226-3.433 1.837-3.433 3.79s1.5 3.564 3.433 3.79l7.446-.032c1.828-.317 3.215-1.878 3.215-3.758 0-1.809-1.24-3.676-3.01-3.717l-4.294-.1zm3.685-5.04c4.934 0 8.975 3.92 8.975 8.784 0 4.866-4.113 8.783-8.966 8.783h-.064L7.9 24.598C3.451 24.08 0 20.373 0 15.878c0-4.496 3.45-8.202 7.901-8.721l.006-.001c2.263-.262 5.369-.062 7.718-.062z" fill="currentColor"/></svg><svg fill="none" viewBox="0 0 32 32" id="icon-arrow-left" xmlns="http://www.w3.org/2000/svg"><path d="M14 6l1.43 1.393L7.85 15H28v2H7.85l7.58 7.573L14 26 4 16 14 6z" fill="currentColor"/></svg><svg fill="none" viewBox="0 0 32 32" id="icon-arrow-right" xmlns="http://www.w3.org/2000/svg"><path d="M18 6l-1.43 1.393L24.15 15H4v2h20.15l-7.58 7.573L18 26l10-10L18 6z" fill="currentColor"/></svg><svg fill="none" viewBox="0 0 32 32" id="icon-arrow-up-right" xmlns="http://www.w3.org/2000/svg"><path d="M10 6v2h12.59L6 24.59 7.41 26 24 9.41V22h2V6H10z" fill="currentColor"/></svg><svg fill="none" viewBox="0 0 32 32" id="icon-caret" xmlns="http://www.w3.org/2000/svg"><path d="M16 22L6 12l1.4-1.4 8.6 8.6 8.6-8.6L26 12 16 22z" fill="#000" fill-opacity=".3"/></svg><svg fill="none" viewBox="0 0 24 24" id="icon-checkmark" xmlns="http://www.w3.org/2000/svg"><path d="M12 1.5a10.5 10.5 0 100 21 10.5 10.5 0 000-21zm-1.5 14.692l-3.75-3.75 1.192-1.192 2.558 2.557 5.558-5.557 1.197 1.19-6.755 6.752z" fill="#D173EE"/></svg><svg fill="none" viewBox="0 0 24 24" id="icon-checkmark-filled" xmlns="http://www.w3.org/2000/svg"><path d="M12 1.5a10.5 10.5 0 100 21 10.5 10.5 0 000-21zm-1.5 14.692l-3.75-3.75 1.192-1.192 2.558 2.557 5.558-5.557 1.197 1.19-6.755 6.752z" fill="#46C31F"/></svg><svg fill="none" viewBox="0 0 32 32" id="icon-close" xmlns="http://www.w3.org/2000/svg"><path d="M5.333 26.667L26.666 5.333M26.667 26.667L5.334 5.333" stroke="#000" stroke-opacity=".6" stroke-width="2" stroke-linecap="round"/></svg><svg fill="none" viewBox="0 0 24 24" id="icon-close-circle" xmlns="http://www.w3.org/2000/svg"><g clip-path="url(#iclip0_474_4906)" fill="#fff"><path d="M16.316 6.624l-4.114 4.113-4.114-4.113-1.06 1.06 4.113 4.114-4.114 4.114 1.061 1.06 4.114-4.113 4.114 4.114 1.06-1.061-4.113-4.114 4.114-4.114-1.061-1.06z"/><path d="M19.955 4.045a11.25 11.25 0 10-15.91 15.91 11.25 11.25 0 0015.91-15.91zM12 21.75c-5.376 0-9.75-4.374-9.75-9.75S6.624 2.25 12 2.25s9.75 4.374 9.75 9.75-4.374 9.75-9.75 9.75z"/></g><defs><clipPath id="iclip0_474_4906"><path fill="#fff" d="M0 0h24v24H0z"/></clipPath></defs></svg><svg fill="none" viewBox="0 0 48 48" id="icon-pause" xmlns="http://www.w3.org/2000/svg"><path d="M4 24C4 12.96 12.96 4 24 4s20 8.96 20 20-8.96 20-20 20S4 35.04 4 24z" stroke="#fff" stroke-width="2"/><path d="M18 19.333c0-1.288.895-2.333 2-2.333s2 1.045 2 2.333v9.334C22 29.955 21.105 31 20 31s-2-1.045-2-2.333v-9.334zM26 19.333c0-1.288.895-2.333 2-2.333s2 1.045 2 2.333v9.334C30 29.955 29.105 31 28 31s-2-1.045-2-2.333v-9.334z" fill="#fff"/></svg><svg fill="none" viewBox="0 0 24 24" id="icon-phone" xmlns="http://www.w3.org/2000/svg"><path d="M15.248 16.11l1.68-1.68a1.642 1.642 0 011.755-.36l2.047.817a1.635 1.635 0 011.02 1.5v3.75a1.627 1.627 0 01-1.71 1.613C5.693 20.858 2.798 8.707 2.25 4.058A1.628 1.628 0 013.878 2.25H7.5A1.62 1.62 0 019 3.27l.818 2.047a1.62 1.62 0 01-.353 1.755l-1.68 1.68s.968 6.548 7.463 7.358z" fill="currentColor"/></svg><svg fill="none" viewBox="0 0 48 48" id="icon-play" xmlns="http://www.w3.org/2000/svg"><path d="M4 24C4 12.96 12.96 4 24 4s20 8.96 20 20-8.96 20-20 20S4 35.04 4 24z" stroke="#fff" stroke-width="2"/><path d="M18.75 29.454V18.546c0-1.614 1.825-2.595 3.194-1.716l8.607 5.454c.291.185.53.44.696.74a2.017 2.017 0 010 1.953c-.165.3-.405.554-.696.739l-8.607 5.454c-1.369.879-3.194-.102-3.194-1.716z" fill="#fff"/></svg><svg fill="none" viewBox="0 0 48 48" id="icon-play-round" xmlns="http://www.w3.org/2000/svg"><path d="M24 3C12.408 3 3 12.408 3 24s9.408 21 21 21 21-9.408 21-21S35.592 3 24 3z" fill="#7600AC"/><path d="M18.75 29.454V18.546c0-1.614 1.825-2.595 3.194-1.716l8.607 5.454c.291.185.53.44.696.74a2.017 2.017 0 010 1.953c-.165.3-.405.554-.696.739l-8.607 5.454c-1.369.879-3.194-.102-3.194-1.716z" fill="#F5F5F5"/></svg></svg>